Coordinates
version=1
nRows=29
nColumns=24
inDegrees=yes

Units are S.I. units (second, meters, Newtons, ...)
Angles are in degrees.

endheader
time	pelvis_tilt	pelvis_list	pelvis_rotation	pelvis_tx	pelvis_ty	pelvis_tz	hip_flexion_r	hip_adduction_r	hip_rotation_r	knee_angle_r	ankle_angle_r	subtalar_angle_r	mtp_angle_r	hip_flexion_l	hip_adduction_l	hip_rotation_l	knee_angle_l	ankle_angle_l	subtalar_angle_l	mtp_angle_l	lumbar_extension	lumbar_bending	lumbar_rotation
      1.32316667	      6.75907106	     -0.50068317	     -3.59539463	      0.92004554	      0.98418771	      0.32863846	    -29.49172047	      1.13354343	     -0.59360511	     -3.78486658	     14.69726243	     -0.07805949	     -2.22472801	     16.10675673	     -1.70646802	      1.33736883	      8.62206892	      1.91933648	     -5.92304019	     -3.47878762	    -21.36335831	      5.31696276	      7.24245035
      1.32733333	      6.74967167	     -0.39907975	     -3.67263408	      0.92591658	      0.98344942	      0.32832109	    -29.69795697	      0.94109118	     -0.63867038	     -4.03598970	     14.57638389	     -0.01254783	     -2.15937672	     16.22313018	     -1.56908134	      1.52624354	      8.05941097	      2.00348896	     -6.01734528	     -3.47304612	    -21.31865929	      5.12999934	      7.27912839
      1.33150000	      6.73413664	     -0.28426008	     -3.74217882	      0.93182186	      0.98272893	      0.32797426	    -29.89379485	      0.73893177	     -0.68550897	     -4.29297078	     14.42662495	      0.03324468	     -2.10859719	     16.34825850	     -1.41085176	      1.72051248	      7.44786030	      2.05231665	     -6.13090691	     -3.46533218	    -21.27895274	      4.94914503	      7.31709046
      1.33566667	      6.71110300	     -0.15972421	     -3.80801799	      0.93778405	      0.98201385	      0.32760495	    -30.07873119	      0.52871981	     -0.73456629	     -4.55670369	     14.25563751	      0.07752671	     -2.05700431	     16.48157883	     -1.23718377	      1.92219852	      6.80208339	      2.06833850	     -6.24977453	     -3.45765095	    -21.23523046	      4.76143105	      7.35888927
      1.33983333	      6.63336385	     -0.03737848	     -3.85367066	      0.94380483	      0.98123998	      0.32716285	    -30.17080147	      0.32548504	     -0.88931966	     -4.90002353	     14.13983392	      0.32323187	     -1.73534133	     16.66938563	     -1.05729071	      2.18961052	      6.13121311	      1.99001789	     -6.46424044	     -3.41137326	    -21.09958780	      4.55108117	      7.49508324
      1.34400000	      6.63054125	      0.11087409	     -3.92975268	      0.94987187	      0.98059995	      0.32679891	    -30.36740851	      0.08844018	     -0.92859704	     -5.18330081	     13.90637625	      0.28319575	     -1.65380998	     16.76465639	     -0.85092491	      2.34728456	      5.45601834	      1.90821428	     -6.61445333	     -3.39824606	    -21.04666861	      4.31006571	      7.49238482
      1.34816667	      6.58868162	      0.27126836	     -3.98525115	      0.95600994	      0.97992475	      0.32638813	    -30.52339709	     -0.14952075	     -0.99576930	     -5.46632116	     13.63853906	      0.28350973	     -1.50560584	     16.89699591	     -0.62523446	      2.56700898	      4.76859558	      1.71819708	     -6.82328677	     -3.37162179	    -20.95516596	      4.05749954	      7.53034925
      1.35233333	      6.51704091	      0.40468143	     -4.03971223	      0.96216453	      0.97923580	      0.32591358	    -30.61869096	     -0.36542639	     -1.08758037	     -5.80733541	     13.40715404	      0.35587043	     -0.88525396	     17.03836811	     -0.41857208	      2.88751667	      4.11797020	      1.29575578	     -7.39248939	     -3.24411060	    -20.81813482	      3.87006286	      7.64482620
      1.35650000	      6.51305174	      0.58863513	     -4.11507534	      0.96836630	      0.97867208	      0.32548015	    -30.78832096	     -0.63917530	     -1.15503534	     -6.13634585	     13.08980323	      0.27509952	     -0.80041289	     17.13996362	     -0.15642776	      2.95707215	      3.37277939	      1.07528590	     -7.54267315	     -3.22777654	    -20.76943627	      3.61949388	      7.62595090
      1.36066667	      6.43246712	      0.75433089	     -4.16455786	      0.97464916	      0.97802835	      0.32500846	    -30.88089967	     -0.87746390	     -1.22116639	     -6.45997535	     12.74864071	      0.25192831	     -0.02423395	     17.26059245	      0.09096243	      3.31837979	      2.76186315	      0.45145641	     -8.24747892	     -3.05093315	    -20.60232669	      3.36392182	      7.71574994
      1.36483333	      6.41175876	      0.97320906	     -4.23052490	      0.98097960	      0.97749880	      0.32456497	    -31.02247281	     -1.17700505	     -1.32295981	     -6.80712696	     12.35391450	      0.16665644	      0.16819889	     17.37069497	      0.39566968	      3.35849533	      2.02032388	      0.07965614	     -8.38313598	     -3.00904666	    -20.50693432	      3.03673416	      7.68541345
      1.36900000	      6.33235470	      1.14577519	     -4.29001817	      0.98730375	      0.97692475	      0.32404649	    -31.07512277	     -1.42979177	     -1.40213120	     -7.20306654	     11.97269546	      0.09651997	      1.18893837	     17.48919380	      0.66079684	      3.68507040	      1.40194044	     -0.69447977	     -9.21629873	     -2.74988913	    -20.35500114	      2.81257025	      7.77229324
      1.37316667	      6.33832054	      1.38919356	     -4.34888016	      0.99372171	      0.97648702	      0.32354821	    -31.23760692	     -1.75512402	     -1.55761290	     -7.53878570	     11.36735034	     -0.07063443	      8.80396259	     17.57007742	      1.00336978	      3.66972251	      0.66454688	     -1.25368093	     -9.44383822	     -0.86558968	    -20.28567558	      2.48525916	      7.71326311
      1.37733333	      6.23703164	      1.60354018	     -4.40222264	      1.00015482	      0.97595950	      0.32303349	    -31.25305893	     -2.03794200	     -1.63750910	     -7.95782689	     10.92442898	     -0.21968761	      8.87780867	     17.75309477	      1.31276063	      3.78064627	     -0.05042083	     -1.95927435	     -9.91322244	     -0.89616118	    -20.08430342	      2.19020913	      7.77297257
      1.38150000	      6.18659014	      1.84318456	     -4.45290673	      1.00662118	      0.97552956	      0.32250325	    -31.31233621	     -2.34821174	     -1.76354324	     -8.39092223	     10.41375007	     -0.35080805	      9.04654293	     17.86674761	      1.65623695	      3.91442357	     -0.73471046	     -2.71968783	    -10.47434350	     -0.89959450	    -19.94220373	      1.86853175	      7.77627554
      1.38566667	      6.10957233	      2.08709549	     -4.49035181	      1.01311557	      0.97510159	      0.32194909	    -31.33687551	     -2.65192449	     -1.87845367	     -8.83306953	      9.89413442	     -0.49771315	      9.27926176	     18.02967453	      2.00785786	      4.00025495	     -1.46249898	     -3.51176392	    -11.00860588	     -0.88583126	    -19.76335495	      1.54908763	      7.77948920
      1.38983333	      6.04173955	      2.34570966	     -4.54178866	      1.01964728	      0.97473183	      0.32139963	    -31.34588473	     -2.97895312	     -2.00469570	     -9.31629500	      9.32021213	     -0.66764285	      9.61973180	     18.16934343	      2.37205234	      4.08911893	     -2.16589595	     -4.32351138	    -11.58349305	     -0.86109955	    -19.59666051	      1.20937887	      7.79162792
      1.39400000	      5.98968598	      2.63955919	     -4.57723856	      1.02624923	      0.97441191	      0.32084736	    -31.37272014	     -3.33064529	     -2.17317259	     -9.79673787	      8.68756785	     -0.81592661	      9.73833712	     18.33549220	      2.77214156	      4.00525825	     -2.97078528	     -4.93612871	    -11.80014795	     -0.85792992	    -19.43601062	      0.81626815	      7.75446897
      1.39816667	      5.89181988	      2.89050506	     -4.60762041	      1.03279996	      0.97408707	      0.32024325	    -31.30886152	     -3.63554392	     -2.28313478	    -10.35168932	      8.05985215	     -1.06748126	     10.21540890	     18.50758648	      3.13876470	      4.16664109	     -3.68057075	     -5.85227041	    -12.58939994	     -0.81709422	    -19.22921502	      0.50545671	      7.77656469
      1.40233333	      5.85485714	      3.20604257	     -4.64006682	      1.03943625	      0.97386165	      0.31966850	    -31.31691740	     -4.00761480	     -2.46128654	    -10.88586735	      7.35689326	     -1.22609796	     10.38639732	     18.67712734	      3.56415737	      4.06009133	     -4.53498183	     -6.40456599	    -12.80401498	     -0.81089570	    -19.08471101	      0.08806077	      7.73127395
      1.40650000	      5.79546969	      3.50342433	     -4.66235254	      1.04603204	      0.97364629	      0.31901787	    -31.24811666	     -4.36688399	     -2.68768518	    -11.50734738	      6.59392987	     -1.48308257	     17.89832021	     18.83596894	      3.98585711	      4.13658713	     -5.32342571	     -7.14732284	    -13.46164183	     -0.26333265	    -18.91349184	     -0.27884916	      7.71609216
      1.41066667	      5.75241768	      3.80904942	     -4.68338429	      1.05269238	      0.97349975	      0.31841383	    -31.21381944	     -4.72149651	     -2.83806868	    -12.09731054	      5.79993739	     -1.71694312	     17.91783900	     19.02536854	      4.40297024	      4.03610139	     -6.22444325	     -7.62389341	    -13.68046977	     -0.27986641	    -18.76626708	     -0.67359049	      7.68234867
      1.41483333	      5.66692392	      4.09088804	     -4.69193425	      1.05932410	      0.97335150	      0.31777583	    -31.08965113	     -5.04391133	     -2.95947637	    -12.77005769	      4.99095581	     -2.05843157	     18.04448410	     19.23925552	      4.80302324	      4.05905244	     -7.09269167	     -8.18024798	    -14.13852805	     -0.31588688	    -18.56067449	     -1.01843900	      7.67327982
      1.41900000	      5.65229884	      4.41813746	     -4.70618653	      1.06601890	      0.97330447	      0.31714056	    -31.04090511	     -5.42236768	     -3.14385584	    -13.43811200	      4.16909010	     -2.25363679	     18.11336512	     19.40959096	      5.25128756	      3.97607155	     -8.05150415	     -8.49151969	    -14.39937288	     -0.33871802	    -18.43507807	     -1.44672623	      7.62984717
      1.42316667	      5.57837997	      4.70610995	     -4.69758391	      1.07264755	      0.97323638	      0.31644689	    -30.87840431	     -5.74925706	     -3.29452900	    -14.19733242	      3.29296621	     -2.59028054	     18.37926564	     19.62897218	      5.66883269	      4.02472506	     -8.98479521	     -8.87669891	    -14.82133303	     -0.40989145	    -18.25111164	     -1.78747835	      7.61902223
      1.42733333	      5.58666220	      5.03333975	     -4.71139646	      1.07931724	      0.97328562	      0.31578745	    -30.80126271	     -6.13354566	     -3.46832723	    -14.94966715	      2.41628862	     -2.78503455	     18.49733693	     19.78300463	      6.12273765	      3.96517047	     -9.98500620	     -9.01856760	    -15.04938912	     -0.44867794	    -18.15975351	     -2.21280491	      7.57083974
      1.43150000	      5.57704465	      5.34562425	     -4.69771558	      1.08597080	      0.97334638	      0.31508322	    -30.67408965	     -6.49100061	     -3.65484811	    -15.76035706	      1.49326974	     -3.03208691	     18.63918464	     19.95091114	      6.57090231	      3.95549277	    -10.98352906	     -9.12588426	    -15.29938698	     -0.49942495	    -18.04660995	     -2.60622162	      7.53344216
      1.43566667	      5.48191618	      5.57461250	     -4.67045075	      1.09255866	      0.97334722	      0.31434355	    -30.41769513	     -6.75027000	     -3.71041707	    -16.62422245	      0.50214233	     -3.49351025	     19.38750071	     20.23051512	      6.93761547	      4.02232657	    -12.04989095	     -9.20824621	    -15.67243187	     -0.77213121	    -17.84079517	     -2.87090915	      7.54293743
      1.43983333	      5.54997891	      5.92027954	     -4.67618157	      1.09925099	      0.97355004	      0.31360696	    -30.31537470	     -7.17709159	     -3.98379046	    -17.52056549	     -0.52675722	     -3.67914851	     25.36865176	     20.29381406	      7.43277802	      4.03700229	    -13.04075891	     -9.03085569	    -15.80777234	     -3.09922594	    -17.81097417	     -3.30026969	      7.49923549
